<?xml version="1.0" encoding="utf-8"?>
<!-- Generator: Adobe Illustrator 16.0.0, SVG Export Plug-In . SVG Version: 6.00 Build 0)  -->
<!DOCTYPE svg PUBLIC "-//W3C//DTD SVG 1.1//EN" "http://www.w3.org/Graphics/SVG/1.1/DTD/svg11.dtd">
<svg version="1.1"
	 id="svg2" xmlns:svg="http://www.w3.org/2000/svg" xmlns:sodipodi="http://sodipodi.sourceforge.net/DTD/sodipodi-0.dtd" xmlns:inkscape="http://www.inkscape.org/namespaces/inkscape" xmlns:rdf="http://www.w3.org/1999/02/22-rdf-syntax-ns#" xmlns:dc="http://purl.org/dc/elements/1.1/" xmlns:cc="http://creativecommons.org/ns#" inkscape:version="0.48.3.1 r9886" sodipodi:docname="collabspot_logo_whitebackground.svg"
	 xmlns="http://www.w3.org/2000/svg" xmlns:xlink="http://www.w3.org/1999/xlink" x="0px" y="0px" width="256px" height="49.949px"
	 viewBox="372 345.025 256 49.949" enable-background="new 372 345.025 256 49.949" xml:space="preserve">
<sodipodi:namedview  bordercolor="#666666" inkscape:cx="473.10093" pagecolor="#ffffff" borderopacity="1.0" inkscape:cy="422.74959" showgrid="false" id="base" inkscape:zoom="1" inkscape:pageopacity="0.0" inkscape:pageshadow="2" inkscape:document-units="px" inkscape:current-layer="layer1" inkscape:window-width="1366" inkscape:window-maximized="1" inkscape:window-y="24" inkscape:window-height="744" inkscape:window-x="0">
	</sodipodi:namedview>
<g id="layer1" transform="translate(0,-312.36218)" inkscape:label="Layer 1" inkscape:groupmode="layer">
	<g id="g3263" transform="translate(-4.2079,11.924225)">
		<path id="path3094" inkscape:connector-curvature="0" fill="#888888" d="M437.514,685.657v-40.193h-6.021v40.193H437.514"/>
		<path id="path3096" inkscape:connector-curvature="0" fill="#888888" d="M446.753,685.657v-40.193h-6.021v40.193H446.753"/>
		<path id="path3098" inkscape:connector-curvature="0" fill="#888888" d="M481.134,685.657v-30.438h-6.077v4.125
			c-2.973-3.419-6.671-5.129-11.094-5.129c-2.156,0-4.163,0.409-6.021,1.227c-1.821,0.781-3.438,2.007-4.85,3.679
			c-2.899,3.122-4.348,6.894-4.348,11.317c0,4.386,1.431,8.14,4.292,11.261c2.899,3.271,6.542,4.906,10.927,4.906
			c4.497,0,8.195-1.71,11.094-5.129v4.181H481.134 M475.058,670.438c0,2.824-0.985,5.222-2.955,7.191
			c-1.97,1.97-4.367,2.955-7.192,2.954c-2.824,0-5.222-0.984-7.191-2.954c-1.969-1.97-2.955-4.367-2.955-7.191
			c0-2.825,0.985-5.222,2.955-7.191c1.97-1.97,4.367-2.955,7.191-2.955c2.825,0,5.222,0.985,7.192,2.955
			C474.072,665.216,475.058,667.613,475.058,670.438"/>
		<path id="path3100" inkscape:connector-curvature="0" fill="#888888" d="M516.751,670.438c0-4.348-1.449-8.121-4.348-11.317
			c-2.937-3.27-6.561-4.906-10.871-4.906c-2.304,0-4.367,0.446-6.188,1.338c-1.821,0.855-3.475,2.119-4.961,3.791v-13.881h-6.021
			v40.193h6.021v-4.181c1.487,1.709,3.14,2.991,4.961,3.847c1.821,0.854,3.884,1.282,6.188,1.282c4.349,0,7.99-1.636,10.927-4.906
			C515.32,678.503,516.751,674.75,516.751,670.438 M510.675,670.438c0,2.824-0.985,5.222-2.954,7.191
			c-1.971,1.97-4.368,2.954-7.192,2.954s-5.222-0.984-7.191-2.954s-2.955-4.367-2.955-7.191c0-2.825,0.985-5.222,2.955-7.191
			s4.367-2.955,7.191-2.955s5.221,0.985,7.192,2.955C509.69,665.216,510.675,667.613,510.675,670.438"/>
		<path id="path3102" inkscape:connector-curvature="0" fill="#888888" d="M543.784,677.016c0-3.865-1.766-6.504-5.297-7.916h0.056
			c-0.297-0.186-3.4-0.836-9.31-1.951c-2.974-0.632-4.46-1.747-4.46-3.345c0-1.189,0.706-2.1,2.118-2.732
			c1.152-0.52,2.527-0.78,4.126-0.78c0.854,0,1.616,0.074,2.285,0.223c0.669,0.112,1.301,0.297,1.896,0.558
			c1.375,0.632,2.063,1.747,2.063,3.345h6.077c0-3.419-1.395-6.04-4.182-7.86c-2.341-1.561-5.054-2.342-8.139-2.342
			s-5.798,0.781-8.14,2.342c-2.75,1.784-4.125,4.199-4.125,7.247c0,3.902,1.766,6.56,5.296,7.972
			c0.298,0.111,1.208,0.335,2.731,0.669c1.523,0.297,3.698,0.725,6.522,1.282c2.974,0.632,4.46,1.729,4.46,3.289
			c0,2.379-2.248,3.567-6.745,3.567c-0.893,0-1.71-0.055-2.453-0.167c-0.706-0.148-1.356-0.334-1.951-0.558
			c-1.561-0.594-2.342-1.746-2.342-3.456h-6.021c0,3.493,1.468,6.151,4.404,7.973c2.453,1.486,5.24,2.229,8.362,2.229
			c3.085,0,5.891-0.743,8.417-2.229C542.334,682.554,543.783,680.1,543.784,677.016"/>
		<path id="path3104" inkscape:connector-curvature="0" fill="#888888" d="M578.892,670.438c0-4.348-1.45-8.121-4.349-11.317
			c-2.936-3.27-6.56-4.906-10.87-4.906c-2.305,0-4.367,0.446-6.188,1.338c-1.821,0.855-3.475,2.119-4.961,3.791v-4.125h-6.021
			v40.194h6.021v-13.937c1.486,1.709,3.14,2.992,4.961,3.847s3.884,1.282,6.188,1.282c4.348,0,7.99-1.636,10.926-4.906
			C577.46,678.503,578.892,674.75,578.892,670.438 M572.816,670.438c0,2.824-0.985,5.222-2.955,7.191s-4.367,2.954-7.191,2.954
			s-5.222-0.984-7.191-2.954s-2.954-4.367-2.954-7.191c0-2.825,0.984-5.222,2.954-7.191s4.367-2.955,7.191-2.955
			s5.222,0.985,7.191,2.955S572.816,667.613,572.816,670.438"/>
		<path id="path3106" inkscape:connector-curvature="0" fill="#888888" d="M612.056,670.438c0-4.423-1.598-8.232-4.794-11.428
			s-7.006-4.794-11.429-4.794c-4.422,0-8.213,1.598-11.372,4.794c-3.196,3.196-4.794,7.005-4.794,11.428s1.598,8.213,4.794,11.372
			c3.159,3.196,6.95,4.795,11.372,4.795c4.423,0,8.232-1.599,11.429-4.795C610.458,678.651,612.056,674.861,612.056,670.438
			 M605.98,670.438c0,2.824-0.984,5.222-2.955,7.191c-1.97,1.97-4.366,2.955-7.191,2.954c-2.824,0-5.222-0.984-7.191-2.954
			s-2.954-4.367-2.954-7.191c0-2.825,0.984-5.222,2.954-7.191s4.367-2.955,7.191-2.955c2.825,0,5.222,0.985,7.191,2.955
			C604.995,665.216,605.98,667.613,605.98,670.438"/>
		<path id="path3108" inkscape:connector-curvature="0" fill="#888888" d="M621.561,660.404v14.605c0,1.412,0.371,2.546,1.114,3.4
			c0.743,0.818,1.784,1.227,3.122,1.227s2.62-0.65,3.847-1.951l2.564,4.404c-2.193,1.97-4.627,2.954-7.304,2.954
			c-2.638,0-4.905-0.91-6.801-2.731c-1.858-1.858-2.787-4.349-2.787-7.47v-14.439h-3.735v-5.017h3.735v-9.31h6.244v9.31h7.804v5.017
			L621.561,660.404"/>
		<path id="path4929" inkscape:connector-curvature="0" fill="#F98C2F" d="M413.926,654.166c-3.93,0-7.526,1.406-10.324,3.743
			c1.302,1.268,2.407,2.736,3.259,4.36c1.885-1.662,4.354-2.674,7.065-2.674c5.906,0,10.694,4.788,10.694,10.695
			c0,5.906-4.788,10.694-10.694,10.694c-3.684,0-6.93-1.864-8.854-4.699l-5.173,1.954c2.772,4.879,8.014,8.175,14.026,8.175
			c8.905,0,16.124-7.219,16.124-16.124C430.05,661.385,422.831,654.166,413.926,654.166L413.926,654.166z"/>
		<path id="path5009" inkscape:connector-curvature="0" fill="#888888" d="M392.332,686.414c3.93,0,7.526-1.406,10.324-3.742
			c-1.302-1.269-2.407-2.737-3.259-4.36c-1.885,1.662-4.354,2.673-7.064,2.673c-5.907,0-10.694-4.788-10.694-10.694
			c0-5.907,4.788-10.695,10.694-10.695c3.683,0,6.93,1.865,8.854,4.7l5.172-1.954c-2.772-4.879-8.014-8.175-14.026-8.175
			c-8.905,0-16.124,7.219-16.124,16.124C376.208,679.195,383.427,686.414,392.332,686.414z"/>
	</g>
</g>
</svg>
