<svg xmlns="http://www.w3.org/2000/svg" width="256" height="47.604"><radialGradient id="a" cx="1139.565" cy="1850.419" r="50.94" gradientTransform="matrix(.263 0 0 .257 -292.715 -472.836)" gradientUnits="userSpaceOnUse"><stop offset="0" stop-color="#FCBB82"/><stop offset="1" stop-color="#fff"/></radialGradient><path fill="url(#a)" d="M21.687 45.862c-.361 0-.721-.087-1.048-.262l-19.496-10.394c-.705-.376-1.143-1.099-1.143-1.885l.002-20.785c0-.786.439-1.509 1.144-1.885l19.497-10.39c.653-.348 1.442-.349 2.096.001l19.494 10.394c.705.376 1.144 1.099 1.144 1.886l-.003 20.784c0 .786-.438 1.509-1.144 1.885l-19.496 10.39c-.326.174-.687.261-1.047.261zm-17.305-13.815l17.304 9.226 17.305-9.223.002-18.235-17.303-9.225-17.305 9.222-.003 18.235z"/><radialGradient id="b" cx="1135.719" cy="1864.156" r="47.431" gradientTransform="matrix(.263 0 0 .257 -292.715 -472.836)" gradientUnits="userSpaceOnUse"><stop offset="0" stop-color="#CE3A27"/><stop offset="1" stop-color="#F78F20"/></radialGradient><path fill="url(#b)" d="M21.687 45.862c-.361 0-.721-.087-1.048-.262l-19.496-10.394c-.705-.376-1.143-1.099-1.143-1.885l.002-20.785c0-.786.439-1.509 1.144-1.885l19.497-10.39c.653-.348 1.442-.349 2.096.001l19.494 10.394c.705.376 1.144 1.099 1.144 1.886l-.003 20.784c0 .786-.438 1.509-1.144 1.885l-19.496 10.39c-.326.174-.687.261-1.047.261zm-17.305-13.815l17.304 9.226 17.305-9.223.002-18.235-17.303-9.225-17.305 9.222-.003 18.235z"/><path d="M14.592 32.326c0 3.753 3.054 6.807 6.807 6.807 3.753 0 6.807-3.054 6.807-6.807s-3.054-6.807-6.807-6.807c-3.753.001-6.807 3.054-6.807 6.807z" fill="none"/><path d="M28.206 13.518c0-3.754-3.054-6.807-6.807-6.807-3.753 0-6.807 3.053-6.807 6.807 0 3.753 3.054 6.807 6.807 6.807 3.753-.001 6.807-3.054 6.807-6.807z" fill="none"/><path fill="#F78F20" d="M28.843 22.922c-2.048-1.624-4.634-2.598-7.444-2.598s-5.396.974-7.444 2.598c2.048 1.624 4.634 2.598 7.444 2.598s5.396-.974 7.444-2.598z"/><radialGradient id="c" cx="1251.296" cy="1875.729" r="55.718" gradientTransform="matrix(.263 0 0 .263 -292.715 -476.27)" gradientUnits="userSpaceOnUse"><stop offset="0" stop-color="#CE3A27"/><stop offset="1" stop-color="#F78F20"/></radialGradient><path fill="url(#c)" d="M14.592 13.518c0-3.754 3.054-6.807 6.807-6.807 3.753 0 6.807 3.053 6.807 6.807 0 3.753-3.054 6.807-6.807 6.807 2.81 0 5.396.974 7.444 2.598 2.773-2.2 4.558-5.597 4.558-9.404 0-6.617-5.384-12.002-12.002-12.002s-12.002 5.383-12.002 12.001c0 3.808 1.785 7.204 4.558 9.404 2.048-1.624 4.634-2.598 7.444-2.598-3.753 0-6.807-3.053-6.807-6.806z"/><radialGradient id="d" cx="1147.431" cy="1963.109" r="61.731" gradientTransform="matrix(.263 0 0 .263 -292.715 -476.27)" gradientUnits="userSpaceOnUse"><stop offset="0" stop-color="#CE3A27"/><stop offset="1" stop-color="#F78F20"/></radialGradient><path fill="url(#d)" d="M28.843 22.922c-2.048 1.624-4.634 2.598-7.444 2.598 3.753 0 6.807 3.054 6.807 6.807s-3.054 6.807-6.807 6.807c-3.753 0-6.807-3.054-6.807-6.807s3.054-6.807 6.807-6.807c-2.81 0-5.396-.974-7.444-2.598-2.773 2.2-4.558 5.597-4.558 9.404 0 6.618 5.384 12.002 12.002 12.002s12.002-5.384 12.002-12.002c0-3.807-1.784-7.204-4.558-9.404z"/><path d="M14.592 32.326c0 3.753 3.054 6.807 6.807 6.807 3.753 0 6.807-3.054 6.807-6.807s-3.054-6.807-6.807-6.807c-3.753.001-6.807 3.054-6.807 6.807z" fill="none"/><radialGradient id="e" cx="1234.639" cy="1952.707" r="49.471" gradientTransform="matrix(.263 0 0 .263 -292.715 -476.27)" gradientUnits="userSpaceOnUse"><stop offset="0" stop-color="#CE3A27"/><stop offset="1" stop-color="#F78F20"/></radialGradient><path fill="url(#e)" d="M42.232 10.655l-19.493-10.393-4.093 5.951 3.044-1.623 17.303 9.225-.002 18.235-17.305 9.223-17.304-9.226.001-5.098-4.383 6.372c0 .786.438 1.509 1.143 1.885l19.496 10.395c.327.175.687.262 1.048.262.36 0 .721-.087 1.047-.262l19.495-10.391c.705-.376 1.144-1.099 1.144-1.885l.003-20.784c0-.787-.438-1.51-1.144-1.886z"/><g fill="#F78F20"><path d="M33.335 31.07l-3.061-2.208s-3.012-3.366-1.623 2.742c.482 2.122-.186 3.956-1.261 5.447-.506-.162-.864-.255-.864-.255-5.759 6.483-17.129-2.076-17.129-2.076-1.034-.168-2.862 1.214 1.828 5.146 2.261 1.896 8.976 4.462 9.081 3.149l1.093 2.154s-.938 1.516 5.928-2.125c6.866-3.642 6.008-11.974 6.008-11.974zM21.399 25.52c.265.006.515.002.757-.005 2.168.172 3.395 1.422 3.395 1.422l1.668-.72 2.117-1.419s.746-.744.384-1.108c-.362-.363-1.297-1.086-1.297-1.086l-1.088.16.028-.251-4.135-1.491-7.504-1.924-3.413-2.117v4.363s3.075 4.054 9.088 4.176z"/></g><g fill="#454040"><path d="M65.967 8.355v-5.883h5.781v5.884h-5.781zm.13 21.006v-17.831h5.471v17.78c0 .859.107 1.467.322 1.818.215.354.598.529 1.148.529.086 0 .697-.095 1.832-.284l.749 3.639c-1.273.585-2.667.878-4.18.878-1.79 0-3.127-.46-4.013-1.381-.887-.919-1.329-2.636-1.329-5.148zM78.354 35.891v-22.142c1.479-.791 3.265-1.437 5.355-1.936 2.09-.499 4.098-.748 6.025-.748 3.303 0 5.754.804 7.354 2.412 1.6 1.609 2.4 3.858 2.4 6.749v15.664h-5.471v-15.122c0-3.458-1.591-5.187-4.774-5.187-.843 0-1.811.117-2.903.349-1.092.232-1.931.486-2.516.761v19.2h-5.47zM103.85 44.768l.304-4c2.588.447 5.312.671 8.171.671 2.574 0 4.549-.15 5.925-.45s2.064-.861 2.064-1.684c0-.572-.503-1.018-1.51-1.337s-2.196-.591-3.568-.815l-4.167-.684c-1.406-.231-2.595-.703-3.567-1.42-.972-.715-1.458-1.66-1.458-2.833 0-1.491.628-2.599 1.885-3.319-2.702-1.514-4.052-4.18-4.052-7.999v-.595c0-6.175 3.492-9.264 10.479-9.264 2.928 0 5.273.552 7.034 1.652.839-1.084 2.245-1.626 4.218-1.626 1.152 0 2.314.294 3.483.882l-.773 3.659c-1.136-.188-1.746-.282-1.833-.282-.619 0-1.083.111-1.393.334s-.508.601-.594 1.132c.342 1.117.514 2.293.514 3.53v.592c0 3.127-.905 5.462-2.719 7.008-1.812 1.547-4.459 2.319-7.944 2.319h-.546c-1.353.148-2.029.678-2.029 1.586 0 .349.227.637.68.869.453.231 1.008.395 1.664.489l2.233.325 2.54.369c.859.125 1.703.331 2.531.619.827.288 1.565.632 2.214 1.032.647.401 1.168.968 1.562 1.7.393.731.589 1.586.589 2.562 0 .92-.226 1.722-.676 2.408-.451.685-1.041 1.231-1.769 1.639-.727.407-1.629.733-2.702.977-1.074.242-2.136.407-3.185.494-1.048.086-2.222.13-3.521.13-4.256 0-7.617-.223-10.084-.67zm5.754-23.859c0 1.665.383 2.932 1.15 3.798.767.867 1.966 1.3 3.6 1.3 1.633 0 2.863-.438 3.688-1.313.826-.876 1.239-2.138 1.239-3.785v-.541c0-3.397-1.613-5.097-4.839-5.097s-4.839 1.683-4.839 5.046v.592zM130.224 24.071v-.774c0-4.008.912-7.049 2.737-9.122 1.824-2.073 4.556-3.109 8.193-3.109 3.637 0 6.4 1.011 8.294 3.032 1.893 2.021 2.839 5.122 2.839 9.303v1.961h-16.335c.138 2.529.814 4.288 2.031 5.277 1.216.989 3.211 1.484 5.987 1.484 2.302 0 4.947-.258 7.939-.774l.558 3.948c-.865.258-2.248.499-4.146.723-1.899.223-3.6.336-5.101.336-4.35 0-7.603-.977-9.761-2.93-2.157-1.952-3.235-5.071-3.235-9.355zm5.676-2.425h10.916c-.104-4.232-1.889-6.349-5.354-6.349-1.776 0-3.112.522-4.01 1.568-.895 1.046-1.413 2.64-1.552 4.781zM156.881 35.891v-22.142c1.479-.791 3.264-1.437 5.354-1.936s4.099-.748 6.025-.748c3.303 0 5.755.804 7.355 2.412 1.599 1.609 2.399 3.858 2.399 6.749v15.664h-5.472v-15.122c0-3.458-1.591-5.187-4.772-5.187-.844 0-1.812.117-2.904.349-1.093.232-1.931.486-2.516.761v19.2h-5.469zM183.048 26.78v-15.25h5.471v14.709c0 1.79.387 3.17 1.16 4.142.775.973 1.953 1.458 3.536 1.458 1.806 0 3.57-.24 5.29-.722v-19.587h5.472v23.121c-1.463.499-3.249.908-5.355 1.227-2.108.317-3.986.478-5.64.478-6.624-.001-9.934-3.193-9.934-9.576zM208.981 8.355v-5.883h5.781v5.884h-5.781zm.129 21.006v-17.831h5.472v17.78c0 .859.106 1.467.322 1.818.215.354.597.529 1.148.529.085 0 .697-.095 1.832-.284l.748 3.639c-1.273.585-2.666.878-4.18.878-1.789 0-3.127-.46-4.013-1.381-.885-.919-1.329-2.636-1.329-5.148zM219.047 15.658v-4.128h2.761v-5.239h5.471v5.239h5.109v4.128h-5.109v11.819c0 1.308.253 2.332.761 3.07.508.741 1.252 1.11 2.232 1.11.912 0 1.797-.095 2.658-.284l.283 4.155c-.929.24-2.099.361-3.509.361-2.684 0-4.671-.705-5.962-2.116-1.289-1.41-1.935-3.397-1.935-5.961v-12.154h-2.76zM234.427 11.53h5.729c.293 3.096.81 6.154 1.552 9.173.742 3.02 1.44 5.348 2.096 6.981.656 1.634 1.148 2.605 1.475 2.915l.181.413c3.381-6.055 5.07-12.292 5.07-18.708v-.774h5.47v1.058c0 2.701-.288 5.347-.866 7.935-.577 2.59-1.231 4.818-1.964 6.685s-1.856 4.009-3.372 6.425c-1.518 2.417-2.775 4.297-3.775 5.64-.998 1.342-2.506 3.293-4.522 5.857-.293.36-.508.636-.646.825l-4.02-2.761c2.421-2.925 4.364-5.462 5.831-7.612-.459-.62-.953-1.368-1.479-2.245-.528-.878-1.162-2.091-1.901-3.639-.738-1.549-1.411-3.179-2.015-4.891-.603-1.711-1.173-3.746-1.708-6.103-.538-2.357-.917-4.748-1.136-7.174z"/></g><g fill="#8E8E8E"><path d="M134.076 43.096c.021 1.234.809 1.742 1.72 1.742.653 0 1.047-.115 1.389-.26l.155.652c-.321.145-.87.311-1.668.311-1.544 0-2.466-1.016-2.466-2.527 0-1.514.892-2.705 2.352-2.705 1.638 0 2.072 1.441 2.072 2.363l-.03.424h-3.524zm2.674-.653c.01-.58-.238-1.48-1.265-1.48-.922 0-1.326.85-1.398 1.48h2.663zM138.756 41.781c0-.52-.01-.943-.041-1.357h.809l.052.828h.021c.248-.477.829-.943 1.657-.943.694 0 1.772.416 1.772 2.135v2.994h-.912v-2.891c0-.809-.301-1.48-1.16-1.48-.602 0-1.067.424-1.223.932-.042.113-.063.27-.063.426v3.014h-.912v-3.658zM148.824 40.424c-.021.361-.042.766-.042 1.377v2.912c0 1.15-.228 1.854-.715 2.289-.487.457-1.191.602-1.823.602-.601 0-1.264-.145-1.668-.414l.228-.695c.332.207.85.395 1.472.395.933 0 1.616-.486 1.616-1.752v-.559h-.021c-.28.467-.819.84-1.596.84-1.243 0-2.135-1.057-2.135-2.445 0-1.699 1.108-2.664 2.259-2.664.87 0 1.347.457 1.564.871h.021l.042-.756h.798zm-.943 1.978c0-.156-.01-.291-.052-.414-.166-.529-.611-.965-1.274-.965-.87 0-1.492.736-1.492 1.896 0 .984.498 1.803 1.482 1.803.559 0 1.066-.352 1.264-.932.052-.156.072-.332.072-.488v-.9zM151.244 39.014c.011.311-.218.561-.58.561-.321 0-.549-.25-.549-.561 0-.32.238-.568.569-.568.342-.001.56.247.56.568zm-1.015 6.424v-5.014h.912v5.014h-.912zM152.651 41.781c0-.52-.01-.943-.041-1.357h.809l.052.828h.021c.248-.477.829-.943 1.657-.943.694 0 1.772.416 1.772 2.135v2.994h-.912v-2.891c0-.809-.301-1.48-1.16-1.48-.602 0-1.067.424-1.223.932-.042.113-.063.27-.063.426v3.014h-.912v-3.658zM158.906 43.096c.021 1.234.809 1.742 1.72 1.742.653 0 1.047-.115 1.389-.26l.155.652c-.321.145-.87.311-1.668.311-1.544 0-2.466-1.016-2.466-2.527 0-1.514.892-2.705 2.352-2.705 1.638 0 2.072 1.441 2.072 2.363l-.03.424h-3.524zm2.674-.653c.01-.58-.238-1.48-1.265-1.48-.922 0-1.326.85-1.398 1.48h2.663zM164.094 43.096c.021 1.234.809 1.742 1.72 1.742.653 0 1.047-.115 1.389-.26l.155.652c-.321.145-.87.311-1.668.311-1.544 0-2.466-1.016-2.466-2.527 0-1.514.892-2.705 2.352-2.705 1.638 0 2.072 1.441 2.072 2.363l-.03.424h-3.524zm2.674-.653c.01-.58-.238-1.48-1.265-1.48-.922 0-1.326.85-1.398 1.48h2.663zM168.773 41.988c0-.592-.01-1.1-.041-1.564h.798l.031.984h.041c.229-.674.777-1.1 1.389-1.1l.259.031v.861l-.311-.031c-.643 0-1.099.486-1.223 1.17-.021.125-.042.27-.042.426v2.672h-.901v-3.449zM173.217 39.014c.011.311-.218.561-.58.561-.321 0-.549-.25-.549-.561 0-.32.238-.568.569-.568.342-.001.56.247.56.568zm-1.016 6.424v-5.014h.912v5.014h-.912zM174.624 41.781c0-.52-.01-.943-.041-1.357h.809l.052.828h.021c.248-.477.829-.943 1.657-.943.694 0 1.772.416 1.772 2.135v2.994h-.912v-2.891c0-.809-.301-1.48-1.16-1.48-.602 0-1.067.424-1.223.932-.042.113-.063.27-.063.426v3.014h-.912v-3.658zM184.692 40.424c-.021.361-.042.766-.042 1.377v2.912c0 1.15-.228 1.854-.715 2.289-.487.457-1.191.602-1.823.602-.601 0-1.264-.145-1.668-.414l.228-.695c.332.207.85.395 1.472.395.933 0 1.616-.486 1.616-1.752v-.559h-.021c-.28.467-.819.84-1.596.84-1.243 0-2.135-1.057-2.135-2.445 0-1.699 1.108-2.664 2.259-2.664.87 0 1.347.457 1.564.871h.021l.042-.756h.798zm-.943 1.978c0-.156-.01-.291-.052-.414-.166-.529-.611-.965-1.274-.965-.87 0-1.492.736-1.492 1.896 0 .984.498 1.803 1.482 1.803.559 0 1.066-.352 1.264-.932.052-.156.072-.332.072-.488v-.9zM191.132 45.438l-.072-.631h-.031c-.28.393-.818.746-1.533.746-1.016 0-1.534-.715-1.534-1.441 0-1.211 1.078-1.875 3.016-1.865v-.104c0-.414-.114-1.16-1.14-1.16-.467 0-.953.145-1.306.373l-.207-.6c.414-.27 1.015-.447 1.647-.447 1.533 0 1.906 1.047 1.906 2.053v1.875c0 .436.021.859.083 1.201h-.829zm-.135-2.559c-.995-.021-2.124.156-2.124 1.129 0 .592.394.871.86.871.652 0 1.066-.414 1.212-.84.031-.094.052-.197.052-.289v-.871zM193.626 40.424l.663 2.549c.145.559.279 1.076.373 1.596h.031c.113-.508.279-1.047.445-1.586l.818-2.559h.767l.777 2.508c.187.6.331 1.129.445 1.637h.031c.083-.508.218-1.037.383-1.627l.715-2.518h.901l-1.616 5.014h-.828l-.768-2.393c-.176-.561-.32-1.057-.445-1.648h-.021c-.124.602-.279 1.119-.456 1.658l-.808 2.383h-.829l-1.513-5.014h.935zM201.287 43.096c.021 1.234.809 1.742 1.72 1.742.653 0 1.047-.115 1.389-.26l.155.652c-.321.145-.87.311-1.668.311-1.544 0-2.466-1.016-2.466-2.527 0-1.514.892-2.705 2.352-2.705 1.638 0 2.072 1.441 2.072 2.363l-.03.424h-3.524zm2.674-.653c.01-.58-.238-1.48-1.265-1.48-.922 0-1.326.85-1.398 1.48h2.663zM205.844 44.506c.27.176.746.361 1.202.361.663 0 .974-.33.974-.744 0-.436-.259-.674-.933-.924-.901-.32-1.326-.818-1.326-1.418 0-.809.653-1.473 1.73-1.473.508 0 .953.146 1.233.313l-.229.662c-.196-.125-.56-.289-1.025-.289-.539 0-.84.311-.84.684 0 .414.301.6.954.85.87.33 1.315.766 1.315 1.512 0 .881-.684 1.502-1.875 1.502-.55 0-1.058-.135-1.409-.342l.229-.694zM214.605 42.889c0 1.855-1.284 2.664-2.496 2.664-1.357 0-2.404-.996-2.404-2.58 0-1.68 1.099-2.664 2.486-2.664 1.441 0 2.414 1.046 2.414 2.58zm-3.978.052c0 1.098.633 1.926 1.523 1.926.87 0 1.523-.818 1.523-1.947 0-.85-.425-1.926-1.503-1.926-1.076 0-1.543.994-1.543 1.947zM215.753 41.781c0-.52-.01-.943-.041-1.357h.798l.041.809h.031c.28-.477.746-.924 1.575-.924.684 0 1.202.416 1.419 1.006h.021c.155-.279.352-.498.559-.652.301-.229.633-.354 1.109-.354.663 0 1.647.436 1.647 2.176v2.953h-.892v-2.838c0-.965-.353-1.545-1.088-1.545-.518 0-.922.385-1.077.83-.042.123-.072.289-.072.455v3.098h-.892v-3.004c0-.799-.353-1.379-1.046-1.379-.57 0-.984.457-1.13.912-.052.135-.072.291-.072.445v3.025h-.892v-3.656zM224.896 43.096c.021 1.234.809 1.742 1.72 1.742.653 0 1.047-.115 1.389-.26l.155.652c-.321.145-.87.311-1.668.311-1.544 0-2.466-1.016-2.466-2.527 0-1.514.892-2.705 2.352-2.705 1.638 0 2.072 1.441 2.072 2.363l-.03.424h-3.524zm2.674-.653c.01-.58-.238-1.48-1.265-1.48-.922 0-1.326.85-1.398 1.48h2.663z"/></g></svg>