<?xml version="1.0" encoding="utf-8"?>
<!-- Generator: Adobe Illustrator 16.0.0, SVG Export Plug-In . SVG Version: 6.00 Build 0)  -->
<!DOCTYPE svg PUBLIC "-//W3C//DTD SVG 1.1//EN" "http://www.w3.org/Graphics/SVG/1.1/DTD/svg11.dtd">
<svg version="1.1" xmlns="http://www.w3.org/2000/svg" xmlns:xlink="http://www.w3.org/1999/xlink" x="0px" y="0px" width="256px"
	 height="163.962px" viewBox="0 0 256 163.962" enable-background="new 0 0 256 163.962" xml:space="preserve">
<g id="Guides_For_Artboard">
</g>
<g id="Layer_1">
	<g>
		<g>
			<path fill-rule="evenodd" clip-rule="evenodd" fill="#5FB1E3" d="M42.792,100.161c34.045-21.87,72.638-6.137,91.862,4.39
				C108.026,94.034,68.987,91.567,42.792,100.161z"/>
			<radialGradient id="SVGID_1_" cx="65.5586" cy="26.543" r="124.0692" gradientUnits="userSpaceOnUse">
				<stop  offset="0" style="stop-color:#5FB1E3"/>
				<stop  offset="0.0391" style="stop-color:#56AADD"/>
				<stop  offset="0.1626" style="stop-color:#3C97D0"/>
				<stop  offset="0.3003" style="stop-color:#1F89C6"/>
				<stop  offset="0.4582" style="stop-color:#0080C0"/>
				<stop  offset="0.6536" style="stop-color:#007CBC"/>
				<stop  offset="1" style="stop-color:#007ABB"/>
			</radialGradient>
			<path fill-rule="evenodd" clip-rule="evenodd" fill="url(#SVGID_1_)" d="M102.56,0c16.36,0,30.439,9.643,36.727,23.487h-12.798
				c-5.648-6.969-14.335-11.434-24.078-11.434c-9.581,0-18.141,4.316-23.795,11.087c0.302-0.241,0.611-0.481,0.936-0.713
				c13.375-9.546,31.211,0.977,31.211,0.977s-16.949-4.9-28.409,3.134c-11.46,8.035-9.618,24.12-9.618,24.12
				s-0.075-0.212-0.191-0.601c0.048,0.186,0.097,0.37,0.149,0.554c-2.749-2.022-6.079-3.346-9.707-3.693
				c-0.432-2.332-0.659-4.734-0.659-7.189C62.328,17.787,80.34,0,102.56,0L102.56,0z M51.109,90.879v-3.435
				c10.641-7.855,30.221-18.076,53.764-10.699c35.78,11.212,58.549,26.465,86.198,19.6c27.648-6.864,30.088-21.966,30.088-21.966
				s-4.879,21.329-32.12,26.01c-27.243,4.682-52.336-0.566-84.254-12.465C83.242,79.892,62.39,86.121,51.109,90.879L51.109,90.879z
				 M51.109,83.983c1.979-1.338,4.001-2.599,5.85-3.561c-0.903-0.574-1.749-1.23-2.511-1.98c-1.421-1.397-2.509-2.955-3.339-4.562
				v7.389c0.072,0.071,0.143,0.143,0.217,0.213c0.356,0.336,0.729,0.648,1.113,0.94c-0.454-0.215-0.897-0.447-1.33-0.696V83.983
				L51.109,83.983z M51.109,49.538V36.891c2.601-0.889,5.368-1.427,8.243-1.556c-0.148,1.444-0.225,2.911-0.225,4.394
				c0,2.493,0.217,4.935,0.631,7.311C56.614,47.172,53.67,48.065,51.109,49.538z M51.109,36.891v12.647
				c-5.608,3.224-9.378,9.223-9.378,16.094c0,6.87,3.771,12.869,9.378,16.094v2.257c-2.26,1.528-4.464,3.157-6.289,4.556
				c-8.073-5.15-13.417-14.113-13.417-24.311C31.403,51.569,39.639,40.811,51.109,36.891L51.109,36.891z M51.109,73.88
				c-3.586-6.945-2.35-14.826-2.35-14.826s-6.072,13.923,2.35,22.215V73.88L51.109,73.88z M51.109,87.444
				c-5.532,4.084-8.649,7.528-8.649,7.528c0,0.148,3.215-1.802,8.649-4.093V87.444z"/>
			<path fill-rule="evenodd" clip-rule="evenodd" fill="#5FB1E3" d="M141.093,82.004c0,0,17.077,8.742,33.138,7.318
				c16.061-1.423,20.939-7.115,20.939-7.115s-5.896,10.876-21.347,11.486S141.093,82.411,141.093,82.004z"/>
			<rect x="128" y="26.771" fill-rule="evenodd" clip-rule="evenodd" fill="#5FB1E3" width="14.355" height="14.353"/>
			<rect x="185.007" y="66.54" fill-rule="evenodd" clip-rule="evenodd" fill="#0089CF" width="11.102" height="11.101"/>
			<rect x="145.298" y="13.619" fill-rule="evenodd" clip-rule="evenodd" fill="#5FB1E3" width="19.142" height="19.14"/>
			<rect x="200.869" y="46.741" fill-rule="evenodd" clip-rule="evenodd" fill="#0089CF" width="19.143" height="19.14"/>
			<rect x="166.274" y="34.229" fill-rule="evenodd" clip-rule="evenodd" fill="#5FB1E3" width="10.673" height="10.67"/>
			<rect x="173.412" y="55.247" fill-rule="evenodd" clip-rule="evenodd" fill="#5FB1E3" width="10.672" height="10.67"/>
			<rect x="150.948" y="56.312" fill-rule="evenodd" clip-rule="evenodd" fill="#0089CF" width="10.672" height="10.67"/>
			<rect x="188.356" y="34.597" fill-rule="evenodd" clip-rule="evenodd" fill="#0089CF" width="10.672" height="10.67"/>
		</g>
		<g>
			<path fill="#0F8DCD" d="M31.528,137.345c0,2.603-0.434,4.993-1.301,7.169c-0.868,2.177-2.087,4.052-3.659,5.623
				c-1.572,1.571-3.462,2.792-5.672,3.659c-2.21,0.868-4.657,1.301-7.342,1.301H0v-35.505h13.554c2.685,0,5.132,0.438,7.342,1.313
				c2.21,0.876,4.101,2.096,5.672,3.658c1.571,1.564,2.791,3.434,3.659,5.611C31.094,132.352,31.528,134.742,31.528,137.345z
				 M24.775,137.345c0-1.948-0.262-3.696-0.786-5.243s-1.269-2.856-2.234-3.929c-0.966-1.072-2.14-1.895-3.523-2.468
				c-1.384-0.573-2.943-0.859-4.678-0.859H6.654v24.996h6.899c1.735,0,3.294-0.286,4.678-0.859c1.383-0.573,2.558-1.396,3.523-2.468
				s1.71-2.382,2.234-3.929C24.513,141.04,24.775,139.293,24.775,137.345z"/>
			<path fill="#0F8DCD" d="M41.276,122.563c0,0.524-0.107,1.015-0.32,1.474s-0.495,0.859-0.847,1.203
				c-0.353,0.343-0.766,0.618-1.24,0.822c-0.475,0.205-0.982,0.307-1.522,0.307c-0.524,0-1.019-0.102-1.485-0.307
				c-0.467-0.205-0.872-0.479-1.215-0.822c-0.344-0.344-0.618-0.745-0.823-1.203s-0.307-0.949-0.307-1.474
				c0-0.54,0.102-1.047,0.307-1.522c0.205-0.475,0.479-0.884,0.823-1.228s0.749-0.618,1.215-0.822
				c0.466-0.205,0.961-0.307,1.485-0.307c0.541,0,1.048,0.103,1.522,0.307s0.888,0.479,1.24,0.822
				c0.352,0.344,0.634,0.753,0.847,1.228C41.169,121.516,41.276,122.023,41.276,122.563z M40.367,129.905v25.193h-6.065v-25.193
				H40.367z"/>
			<path fill="#0F8DCD" d="M53.479,129.463c1.081,0,2.095,0.11,3.045,0.332c0.949,0.221,1.817,0.544,2.603,0.97h7.243v2.259
				c0,0.377-0.098,0.671-0.294,0.884c-0.197,0.213-0.533,0.36-1.007,0.442l-2.259,0.417c0.164,0.426,0.291,0.876,0.381,1.351
				c0.089,0.475,0.135,0.974,0.135,1.498c0,1.244-0.25,2.369-0.749,3.376s-1.187,1.862-2.062,2.566
				c-0.876,0.704-1.916,1.249-3.119,1.633c-1.203,0.385-2.509,0.577-3.917,0.577c-0.95,0-1.875-0.09-2.775-0.27
				c-0.786,0.479-1.178,1.014-1.178,1.607c0,0.511,0.233,0.887,0.7,1.125c0.467,0.239,1.08,0.408,1.842,0.507
				c0.761,0.099,1.624,0.148,2.59,0.148c0.965,0,1.956,0.041,2.971,0.124c1.015,0.082,2.005,0.226,2.971,0.431
				c0.965,0.205,1.829,0.529,2.59,0.973c0.761,0.444,1.375,1.047,1.841,1.811c0.467,0.764,0.7,1.745,0.7,2.944
				c0,1.117-0.274,2.2-0.822,3.252c-0.549,1.051-1.342,1.986-2.382,2.808c-1.04,0.821-2.313,1.482-3.818,1.983
				c-1.507,0.501-3.226,0.751-5.157,0.751c-1.916,0-3.577-0.184-4.985-0.553c-1.408-0.368-2.574-0.859-3.499-1.473
				c-0.925-0.614-1.617-1.322-2.075-2.124c-0.458-0.802-0.688-1.637-0.688-2.504c0-1.179,0.36-2.169,1.081-2.971
				s1.719-1.44,2.996-1.915c-0.622-0.344-1.121-0.802-1.498-1.375c-0.377-0.572-0.565-1.317-0.565-2.234
				c0-0.376,0.065-0.765,0.197-1.167c0.13-0.401,0.331-0.798,0.602-1.191c0.27-0.393,0.609-0.765,1.019-1.117
				c0.409-0.352,0.892-0.667,1.448-0.945c-1.277-0.688-2.279-1.604-3.008-2.75c-0.729-1.145-1.093-2.488-1.093-4.026
				c0-1.244,0.25-2.37,0.749-3.376c0.499-1.007,1.195-1.866,2.087-2.579c0.892-0.711,1.948-1.256,3.167-1.632
				S52.039,129.463,53.479,129.463z M60.133,156.155c0-0.501-0.147-0.911-0.442-1.228c-0.294-0.318-0.696-0.564-1.203-0.74
				c-0.508-0.176-1.102-0.305-1.78-0.389c-0.679-0.083-1.399-0.125-2.161-0.125c-0.761,0-1.546,0-2.357,0
				c-0.81,0-1.592-0.09-2.345-0.271c-0.688,0.377-1.24,0.823-1.658,1.338c-0.417,0.516-0.626,1.109-0.626,1.78
				c0,0.442,0.111,0.855,0.332,1.24c0.221,0.384,0.573,0.716,1.056,0.995c0.483,0.278,1.109,0.495,1.878,0.65
				c0.769,0.156,1.71,0.233,2.824,0.233c1.129,0,2.104-0.088,2.922-0.263c0.818-0.176,1.494-0.417,2.025-0.727
				c0.532-0.309,0.921-0.677,1.167-1.103C60.011,157.121,60.133,156.657,60.133,156.155z M53.479,141.888
				c0.752,0,1.408-0.102,1.964-0.307c0.556-0.205,1.019-0.487,1.387-0.847c0.368-0.36,0.646-0.793,0.835-1.301
				c0.188-0.507,0.282-1.064,0.282-1.67c0-1.244-0.373-2.23-1.117-2.958c-0.745-0.729-1.862-1.093-3.352-1.093
				s-2.607,0.364-3.352,1.093c-0.745,0.729-1.117,1.714-1.117,2.958c0,0.589,0.094,1.138,0.282,1.645
				c0.188,0.508,0.467,0.946,0.835,1.314c0.369,0.368,0.835,0.655,1.399,0.859C52.092,141.786,52.742,141.888,53.479,141.888z"/>
			<path fill="#0F8DCD" d="M75.086,122.563c0,0.524-0.106,1.015-0.319,1.474s-0.495,0.859-0.847,1.203
				c-0.352,0.343-0.765,0.618-1.24,0.822c-0.475,0.205-0.982,0.307-1.522,0.307c-0.524,0-1.019-0.102-1.485-0.307
				c-0.467-0.205-0.872-0.479-1.216-0.822c-0.343-0.344-0.618-0.745-0.822-1.203c-0.205-0.458-0.307-0.949-0.307-1.474
				c0-0.54,0.102-1.047,0.307-1.522c0.205-0.475,0.479-0.884,0.822-1.228c0.344-0.344,0.749-0.618,1.216-0.822
				c0.466-0.205,0.961-0.307,1.485-0.307c0.54,0,1.047,0.103,1.522,0.307c0.475,0.205,0.888,0.479,1.24,0.822
				s0.634,0.753,0.847,1.228C74.979,121.516,75.086,122.023,75.086,122.563z M74.178,129.905v25.193h-6.065v-25.193H74.178z"/>
			<path fill="#0F8DCD" d="M86.847,155.491c-2.177,0-3.855-0.618-5.034-1.854c-1.179-1.236-1.768-2.942-1.768-5.12v-14.07h-2.554
				c-0.328,0-0.61-0.106-0.847-0.319c-0.238-0.213-0.356-0.532-0.356-0.958v-2.406l4.051-0.663l1.277-6.875
				c0.065-0.327,0.217-0.581,0.454-0.761c0.237-0.181,0.536-0.271,0.896-0.271h3.143v7.931h6.629v4.321h-6.629V148.1
				c0,0.786,0.196,1.4,0.589,1.841c0.393,0.442,0.917,0.664,1.571,0.664c0.376,0,0.692-0.045,0.946-0.135
				c0.253-0.09,0.475-0.184,0.663-0.282c0.188-0.099,0.356-0.192,0.503-0.283c0.147-0.089,0.294-0.135,0.441-0.135
				c0.18,0,0.328,0.045,0.442,0.135c0.114,0.09,0.237,0.225,0.368,0.405l1.817,2.947c-0.884,0.736-1.899,1.293-3.045,1.669
				C89.262,155.302,88.075,155.491,86.847,155.491z"/>
			<path fill="#0F8DCD" d="M114.863,155.098h-2.725c-0.574,0-1.023-0.086-1.351-0.258c-0.328-0.172-0.574-0.52-0.737-1.043
				l-0.54-1.792c-0.639,0.573-1.265,1.076-1.878,1.51c-0.614,0.434-1.249,0.798-1.903,1.093c-0.655,0.294-1.351,0.515-2.087,0.663
				c-0.736,0.147-1.555,0.221-2.455,0.221c-1.064,0-2.047-0.144-2.947-0.431c-0.9-0.288-1.674-0.719-2.32-1.293
				c-0.647-0.575-1.15-1.29-1.51-2.144c-0.36-0.854-0.54-1.848-0.54-2.98c0-0.953,0.25-1.894,0.749-2.821
				c0.5-0.928,1.33-1.765,2.493-2.513c1.162-0.747,2.709-1.367,4.641-1.86c1.931-0.492,4.33-0.739,7.195-0.739v-1.484
				c0-1.699-0.356-2.957-1.068-3.773c-0.712-0.816-1.748-1.225-3.106-1.225c-0.982,0-1.801,0.115-2.455,0.344
				c-0.655,0.229-1.224,0.487-1.707,0.773c-0.482,0.287-0.929,0.544-1.338,0.773c-0.409,0.229-0.859,0.344-1.351,0.344
				c-0.409,0-0.761-0.106-1.056-0.319c-0.295-0.213-0.532-0.475-0.712-0.786l-1.105-1.94c2.898-2.651,6.393-3.978,10.485-3.978
				c1.473,0,2.787,0.242,3.941,0.725c1.154,0.482,2.132,1.154,2.935,2.013c0.802,0.859,1.412,1.887,1.829,3.082
				c0.417,1.195,0.626,2.504,0.626,3.929V155.098z M103.077,151.316c0.622,0,1.195-0.057,1.719-0.169
				c0.523-0.113,1.019-0.282,1.485-0.508c0.467-0.225,0.917-0.503,1.351-0.833c0.434-0.33,0.872-0.721,1.314-1.172v-4.217
				c-1.768,0-3.246,0.111-4.433,0.334c-1.187,0.222-2.141,0.507-2.86,0.853c-0.721,0.347-1.232,0.75-1.535,1.212
				c-0.303,0.462-0.454,0.964-0.454,1.508c0,1.072,0.315,1.838,0.945,2.3C101.24,151.086,102.062,151.316,103.077,151.316z"/>
			<path fill="#0F8DCD" d="M124.833,118.61v36.488h-6.065V118.61H124.833z"/>
			<path fill="#0F8DCD" d="M163.628,137.345c0,2.603-0.434,5.013-1.302,7.231c-0.867,2.218-2.087,4.138-3.658,5.758
				c-1.572,1.62-3.462,2.885-5.672,3.793c-2.21,0.908-4.657,1.363-7.342,1.363s-5.136-0.455-7.354-1.363
				c-2.218-0.909-4.117-2.173-5.696-3.793c-1.58-1.621-2.804-3.54-3.671-5.758c-0.868-2.218-1.301-4.628-1.301-7.231
				c0-2.603,0.433-5.013,1.301-7.231c0.867-2.218,2.091-4.138,3.671-5.758c1.579-1.62,3.479-2.885,5.696-3.793
				c2.219-0.909,4.67-1.363,7.354-1.363s5.132,0.458,7.342,1.375c2.21,0.917,4.1,2.182,5.672,3.794
				c1.571,1.612,2.791,3.527,3.658,5.746C163.194,132.332,163.628,134.742,163.628,137.345z M156.851,137.345
				c0-1.948-0.258-3.696-0.773-5.243s-1.256-2.861-2.223-3.941c-0.965-1.081-2.14-1.907-3.522-2.48
				c-1.384-0.573-2.943-0.859-4.678-0.859c-1.735,0-3.299,0.287-4.69,0.859c-1.392,0.573-2.573,1.399-3.548,2.48
				c-0.974,1.08-1.723,2.394-2.246,3.941c-0.524,1.547-0.786,3.294-0.786,5.243s0.262,3.695,0.786,5.242
				c0.523,1.547,1.272,2.856,2.246,3.929c0.975,1.072,2.156,1.895,3.548,2.468c1.392,0.573,2.955,0.859,4.69,0.859
				c1.734,0,3.294-0.286,4.678-0.859c1.383-0.573,2.558-1.396,3.522-2.468c0.967-1.072,1.707-2.382,2.223-3.929
				C156.593,141.04,156.851,139.293,156.851,137.345z"/>
			<path fill="#0F8DCD" d="M183.737,135.233c-0.18,0.229-0.355,0.41-0.527,0.541c-0.172,0.131-0.422,0.196-0.749,0.196
				c-0.312,0-0.613-0.094-0.908-0.282s-0.646-0.401-1.057-0.639c-0.408-0.237-0.896-0.45-1.461-0.638
				c-0.564-0.188-1.264-0.282-2.099-0.282c-1.064,0-1.998,0.192-2.799,0.577c-0.803,0.384-1.47,0.937-2.002,1.657
				s-0.93,1.592-1.19,2.615c-0.263,1.023-0.394,2.181-0.394,3.474c0,1.343,0.144,2.538,0.43,3.585c0.286,1.048,0.7,1.928,1.24,2.64
				s1.195,1.252,1.964,1.621c0.77,0.368,1.638,0.553,2.604,0.553s1.747-0.119,2.345-0.356s1.101-0.499,1.511-0.786
				c0.408-0.286,0.765-0.548,1.067-0.786s0.643-0.356,1.02-0.356c0.491,0,0.859,0.188,1.104,0.565l1.743,2.209
				c-0.671,0.786-1.399,1.445-2.185,1.977c-0.786,0.532-1.601,0.958-2.443,1.277c-0.844,0.319-1.715,0.544-2.615,0.675
				c-0.9,0.131-1.792,0.196-2.677,0.196c-1.556,0-3.02-0.291-4.395-0.872c-1.376-0.581-2.575-1.428-3.598-2.541
				c-1.023-1.113-1.833-2.476-2.431-4.088c-0.598-1.613-0.896-3.45-0.896-5.513c0-1.85,0.266-3.564,0.798-5.144
				s1.314-2.947,2.345-4.101c1.031-1.154,2.309-2.059,3.831-2.713s3.273-0.982,5.255-0.982c1.882,0,3.531,0.303,4.947,0.908
				c1.416,0.606,2.688,1.473,3.818,2.603L183.737,135.233z"/>
			<path fill="#0F8DCD" d="M197.414,129.512c1.588,0,3.049,0.254,4.383,0.761c1.334,0.508,2.484,1.249,3.45,2.222
				c0.966,0.974,1.719,2.169,2.259,3.585c0.54,1.417,0.811,3.033,0.811,4.85c0,0.458-0.021,0.839-0.062,1.142
				c-0.041,0.303-0.114,0.54-0.221,0.712c-0.107,0.172-0.25,0.294-0.43,0.368c-0.181,0.074-0.409,0.11-0.688,0.11h-15.568
				c0.181,2.587,0.876,4.485,2.088,5.697c1.211,1.211,2.815,1.817,4.813,1.817c0.981,0,1.829-0.114,2.541-0.343
				c0.712-0.229,1.335-0.483,1.866-0.761s0.998-0.532,1.4-0.762c0.4-0.229,0.789-0.343,1.166-0.343c0.245,0,0.458,0.049,0.639,0.147
				c0.18,0.098,0.334,0.237,0.466,0.417l1.769,2.209c-0.672,0.786-1.425,1.445-2.26,1.977c-0.835,0.532-1.706,0.958-2.614,1.277
				c-0.908,0.319-1.834,0.544-2.775,0.675c-0.941,0.131-1.854,0.196-2.737,0.196c-1.752,0-3.381-0.291-4.887-0.872
				s-2.815-1.44-3.929-2.578c-1.113-1.138-1.989-2.545-2.627-4.224c-0.639-1.677-0.958-3.621-0.958-5.832
				c0-1.719,0.278-3.335,0.835-4.849s1.354-2.832,2.394-3.954c1.04-1.121,2.309-2.009,3.807-2.664S195.531,129.512,197.414,129.512z
				 M197.537,133.858c-1.768,0-3.151,0.5-4.15,1.498c-0.998,0.999-1.637,2.415-1.915,4.248h11.394c0-0.786-0.107-1.526-0.319-2.222
				c-0.213-0.696-0.54-1.305-0.982-1.83c-0.441-0.523-0.998-0.937-1.67-1.24C199.223,134.01,198.437,133.858,197.537,133.858z"/>
			<path fill="#0F8DCD" d="M230.537,155.098h-2.726c-0.572,0-1.022-0.086-1.351-0.258c-0.327-0.172-0.573-0.52-0.736-1.043
				l-0.54-1.792c-0.638,0.573-1.265,1.076-1.878,1.51c-0.614,0.434-1.249,0.798-1.903,1.093c-0.654,0.294-1.351,0.515-2.087,0.663
				c-0.737,0.147-1.556,0.221-2.456,0.221c-1.064,0-2.046-0.144-2.946-0.431c-0.9-0.288-1.674-0.719-2.32-1.293
				c-0.646-0.575-1.15-1.29-1.51-2.144c-0.36-0.854-0.541-1.848-0.541-2.98c0-0.953,0.25-1.894,0.75-2.821
				c0.498-0.928,1.329-1.765,2.491-2.513c1.162-0.747,2.709-1.367,4.641-1.86c1.933-0.492,4.33-0.739,7.195-0.739v-1.484
				c0-1.699-0.356-2.957-1.068-3.773s-1.748-1.225-3.106-1.225c-0.982,0-1.801,0.115-2.455,0.344
				c-0.655,0.229-1.224,0.487-1.707,0.773c-0.482,0.287-0.929,0.544-1.338,0.773c-0.409,0.229-0.859,0.344-1.351,0.344
				c-0.409,0-0.761-0.106-1.056-0.319c-0.295-0.213-0.532-0.475-0.712-0.786l-1.104-1.94c2.896-2.651,6.392-3.978,10.484-3.978
				c1.474,0,2.786,0.242,3.941,0.725c1.153,0.482,2.131,1.154,2.934,2.013c0.802,0.859,1.412,1.887,1.829,3.082
				c0.418,1.195,0.626,2.504,0.626,3.929V155.098z M218.751,151.316c0.622,0,1.194-0.057,1.72-0.169
				c0.523-0.113,1.019-0.282,1.484-0.508c0.467-0.225,0.917-0.503,1.352-0.833c0.433-0.33,0.871-0.721,1.313-1.172v-4.217
				c-1.769,0-3.246,0.111-4.433,0.334c-1.187,0.222-2.14,0.507-2.86,0.853c-0.721,0.347-1.232,0.75-1.534,1.212
				c-0.304,0.462-0.455,0.964-0.455,1.508c0,1.072,0.315,1.838,0.945,2.3C216.914,151.086,217.736,151.316,218.751,151.316z"/>
			<path fill="#0F8DCD" d="M234.048,155.098v-25.193h3.708c0.786,0,1.301,0.368,1.547,1.105l0.417,1.989
				c0.508-0.523,1.044-0.998,1.608-1.424s1.162-0.794,1.793-1.105c0.63-0.311,1.306-0.548,2.025-0.712
				c0.721-0.163,1.506-0.245,2.357-0.245c1.375,0,2.594,0.233,3.659,0.7c1.063,0.466,1.951,1.121,2.664,1.964
				c0.712,0.843,1.252,1.85,1.62,3.02c0.368,1.171,0.553,2.46,0.553,3.868v16.034h-6.065v-16.034c0-1.539-0.355-2.73-1.068-3.573
				c-0.711-0.843-1.779-1.265-3.204-1.265c-1.048,0-2.03,0.237-2.946,0.712c-0.917,0.475-1.784,1.122-2.603,1.94v18.219H234.048z"/>
		</g>
	</g>
</g>
</svg>
