<?xml version="1.0" encoding="utf-8"?>
<!-- Generator: Adobe Illustrator 16.0.0, SVG Export Plug-In . SVG Version: 6.00 Build 0)  -->
<!DOCTYPE svg PUBLIC "-//W3C//DTD SVG 1.1//EN" "http://www.w3.org/Graphics/SVG/1.1/DTD/svg11.dtd">
<svg version="1.1" id="Layer_1" xmlns="http://www.w3.org/2000/svg" xmlns:xlink="http://www.w3.org/1999/xlink" x="0px" y="0px"
	 width="256px" height="89.439px" viewBox="90.252 31.532 256 89.439" enable-background="new 90.252 31.532 256 89.439"
	 xml:space="preserve">
<g>
	<g>
		<path fill="#092E20" d="M120.435,31.532h14v64.804c-7.182,1.363-12.455,1.909-18.182,1.909c-17.092-0.001-26-7.728-26-22.546
			c0-14.273,9.455-23.545,24.091-23.545c2.272,0,4,0.181,6.091,0.727V31.532z M120.435,64.152c-1.636-0.545-3-0.727-4.727-0.727
			c-7.091,0-11.182,4.364-11.182,12c0,7.456,3.909,11.546,11.091,11.546c1.545,0,2.818-0.091,4.818-0.363V64.152z"/>
		<path fill="#092E20" d="M156.707,53.152v32.455c0,11.183-0.818,16.546-3.272,21.182c-2.273,4.456-5.273,7.273-11.455,10.365
			l-13-6.182c6.182-2.91,9.182-5.454,11.091-9.365c2-3.999,2.638-8.636,2.638-20.818V53.152H156.707z M142.708,31.606h14V45.97h-14
			V31.606z"/>
		<path fill="#092E20" d="M165.164,56.334c6.183-2.908,12.091-4.181,18.546-4.181c7.182,0,11.909,1.909,14,5.636
			c1.182,2.091,1.545,4.818,1.545,10.637V96.88c-6.273,0.909-14.182,1.546-20,1.546c-11.727,0-17.001-4.093-17.001-13.183
			c0-9.819,7-14.365,24.183-15.82v-3.09c0-2.545-1.273-3.454-4.818-3.454c-5.182,0-11,1.454-16.456,4.272L165.164,56.334
			L165.164,56.334z M187.073,78.607c-9.273,0.909-12.273,2.364-12.273,6.001c0,2.727,1.728,3.999,5.546,3.999
			c2.091,0,4-0.182,6.728-0.636V78.607L187.073,78.607z"/>
		<path fill="#092E20" d="M206.074,55.334c8.272-2.182,15.091-3.181,22-3.181c7.182,0,12.364,1.636,15.456,4.818
			c2.909,3,3.817,6.272,3.817,13.273v27.454h-14V70.79c0-5.363-1.818-7.365-6.817-7.365c-1.91,0-3.637,0.182-6.456,1v33.273h-14
			V55.334z"/>
		<path fill="#092E20" d="M252.79,105.334c4.91,2.546,9.818,3.728,15.001,3.728c9.181,0,13.09-3.728,13.09-12.637
			c0-0.09,0-0.182,0-0.272c-2.728,1.363-5.454,1.909-9.09,1.909c-12.273,0-20.093-8.091-20.093-20.909
			c0-15.911,11.546-24.91,32.001-24.91c6.001,0,11.546,0.636,18.273,2l-4.794,10.098c-3.728-0.727-0.298-0.097-3.115-0.37v1.455
			l0.182,5.908l0.09,7.637c0.091,1.908,0.091,3.818,0.183,5.727c0,1.728,0,2.547,0,3.819c0,12-1,17.637-4,22.272
			c-4.364,6.819-11.909,10.182-22.637,10.182c-5.455,0-10.182-0.817-15.091-2.727V105.334L252.79,105.334z M280.609,63.516
			c-0.182,0-0.363,0-0.454,0h-1c-2.727-0.091-5.909,0.636-8.092,1.999c-3.362,1.91-5.091,5.364-5.091,10.273
			c0,7.001,3.455,11,9.637,11c1.908,0,3.455-0.363,5.272-0.908v-1.001v-3.816c0-1.638-0.09-3.456-0.09-5.365l-0.091-6.454
			l-0.092-4.637V63.516L280.609,63.516z"/>
		<path fill="#092E20" d="M323.708,51.971c13.998,0,22.545,8.819,22.545,23.091c0,14.638-8.908,23.819-23.092,23.819
			c-14.001,0-22.637-8.819-22.637-23C300.524,61.152,309.433,51.971,323.708,51.971z M323.432,87.608
			c5.365,0,8.548-4.455,8.548-12.183c0-7.636-3.092-12.182-8.455-12.182c-5.546,0-8.729,4.456-8.729,12.182
			C314.796,83.153,317.979,87.608,323.432,87.608z"/>
	</g>
</g>
</svg>
