<svg xmlns="http://www.w3.org/2000/svg" width="256" height="69.231"><path fill="#100E0F" d="M49.307 29.631h-21.513c-.555 0-1.005.451-1.005 1.006v10.517c0 .556.45 1.007 1.005 1.007h8.392v13.067s-1.885.643-7.094.643c-6.146 0-14.732-2.246-14.732-21.126 0-18.884 8.94-21.369 17.334-21.369 7.266 0 10.396 1.279 12.387 1.896.626.191 1.205-.432 1.205-.987l2.4-10.163c0-.26-.088-.573-.384-.785-.809-.576-5.743-3.337-18.21-3.337-14.361 0-29.092 6.11-29.092 35.481 0 29.373 16.866 33.75 31.079 33.75 11.768 0 18.907-5.029 18.907-5.029.294-.162.326-.573.326-.762v-32.803c0-.555-.45-1.006-1.005-1.006z"/><path fill="#100E0F" d="M160.172 3.519c0-.56-.443-1.011-.999-1.011h-12.112c-.554 0-1.003.452-1.003 1.011l.003 23.408h-18.88v-23.408c0-.56-.446-1.011-1-1.011h-12.112c-.551 0-1 .452-1 1.011v63.383c0 .559.449 1.014 1 1.014h12.112c.554 0 1-.455 1-1.014v-27.111h18.88l-.033 27.111c0 .559.449 1.014 1.004 1.014h12.141c.556 0 .999-.455 1-1.014v-63.383z"/><g fill="#100E0F"><path d="M72.164 11.836c0-4.361-3.497-7.886-7.812-7.886-4.31 0-7.809 3.524-7.809 7.886 0 4.357 3.5 7.891 7.809 7.891 4.315.001 7.812-3.534 7.812-7.891zM71.298 53.532v-29.258c0-.555-.448-1.01-1.002-1.01h-12.075c-.554 0-1.049.572-1.049 1.127v41.917c0 1.231.768 1.598 1.761 1.598h10.879c1.193 0 1.486-.586 1.486-1.617v-12.757z"/></g><path fill="#100E0F" d="M206.205 23.359h-12.02c-.551 0-1 .455-1 1.014v31.078s-3.054 2.234-7.388 2.234-5.484-1.967-5.484-6.21v-27.103c0-.559-.447-1.014-.999-1.014h-12.199c-.551 0-1.002.455-1.002 1.014v29.154c0 12.605 7.025 15.689 16.689 15.689 7.929 0 14.321-4.381 14.321-4.381s.304 2.309.441 2.582.497.549.885.549l7.761-.034c.551 0 1.001-.455 1.001-1.012l-.003-42.548c.001-.557-.448-1.012-1.003-1.012z"/><path fill="#100E0F" d="M239.058 21.936c-6.827 0-11.471 3.045-11.471 3.045v-21.462c0-.56-.446-1.011-.999-1.011h-12.146c-.553 0-1.002.452-1.002 1.011v63.383c0 .559.449 1.014 1.003 1.014h8.428c.379 0 .667-.195.879-.538.21-.341.512-2.923.512-2.923s4.967 4.707 14.37 4.707c11.038 0 17.369-5.599 17.369-25.136-.001-19.537-10.111-22.09-16.943-22.09zm-4.742 35.711c-4.169-.127-6.996-2.019-6.996-2.019v-20.071s2.789-1.71 6.212-2.016c4.328-.388 8.499.92 8.499 11.245 0 10.889-1.882 13.037-7.715 12.861z"/><path fill="#100E0F" d="M106.11 23.259h-9.086l-.013-12.004c0-.454-.234-.681-.76-.681h-12.382c-.481 0-.74.212-.74.674v12.404s-6.205 1.498-6.625 1.619c-.417.122-.725.507-.725.966v7.795c0 .561.448 1.013 1.001 1.013h6.348v18.752c0 13.929 9.77 15.297 16.363 15.297 3.013 0 6.616-.968 7.211-1.188.359-.132.569-.505.569-.908l.01-8.575c0-.559-.472-1.012-1.004-1.012-.53 0-1.884.216-3.279.216-4.463 0-5.975-2.075-5.975-4.762v-17.82h9.087c.554 0 1.002-.452 1.002-1.013v-9.764c.001-.559-.448-1.009-1.002-1.009z"/></svg>