<?xml version="1.0" encoding="utf-8"?>
<!-- Generator: Adobe Illustrator 16.0.0, SVG Export Plug-In . SVG Version: 6.00 Build 0)  -->
<!DOCTYPE svg PUBLIC "-//W3C//DTD SVG 1.1//EN" "http://www.w3.org/Graphics/SVG/1.1/DTD/svg11.dtd">
<svg version="1.1" id="Layer_1" xmlns="http://www.w3.org/2000/svg" xmlns:xlink="http://www.w3.org/1999/xlink" x="0px" y="0px"
	 width="256px" height="256px" viewBox="0 0 256 256" enable-background="new 0 0 256 256" xml:space="preserve">
<g>
	<g>
		<g>
			<path fill="#FFD43C" d="M114.828,103.551c-2.628,0-4.761,2.132-4.761,4.762c0,2.63,2.133,4.761,4.761,4.761
				c2.63,0,4.762-2.131,4.762-4.761C119.59,105.683,117.458,103.551,114.828,103.551z M141.512,192.902
				c2.629,0,4.762-2.133,4.762-4.764c0-2.628-2.134-4.761-4.762-4.76c-2.63-0.001-4.762,2.131-4.762,4.76
				C136.75,190.771,138.882,192.902,141.512,192.902z M218.566,158.105l11.305-10.001l-11.305-10.136l-26.806,2.949
				c-0.19-1.667-0.442-3.328-0.763-4.98l22.958-3.293l-7.198-5.87l-17.088,3.655c-1.358-4.715-3.26-9.306-5.718-13.67l14.905-9.065
				l1.005-9.172l-18.898,13.44c-0.95-1.383-1.957-2.737-3.028-4.058l21.089-16.735l0.93-15.061l-15.163,0.826l-16.873,21.031
				c-1.322-1.05-2.674-2.043-4.057-2.977l13.9-18.563l-9.236,0.937l-9.497,14.667c-4.382-2.423-8.985-4.293-13.71-5.614
				l4.123-16.951l-5.778-7.2l-3.857,22.869c-1.66-0.309-3.33-0.547-5.005-0.728l3.08-26.755l-9.996-11.294l-10.132,11.301
				l2.936,26.802c-1.666,0.189-3.324,0.441-4.973,0.759l-3.296-22.952l-5.868,7.198l3.65,17.082
				c-4.714,1.357-9.305,3.263-13.67,5.718L87.47,77.361l-9.17-1.002l13.436,18.894c-1.384,0.949-2.737,1.956-4.056,3.027
				L70.95,77.194l-15.07-0.92l0.829,15.16l21.036,16.86c-1.055,1.323-2.05,2.677-2.985,4.061L56.208,98.452l0.931,9.242
				l14.662,9.492c-2.422,4.38-4.288,8.985-5.611,13.709l-16.952-4.115l-7.196,5.776l22.868,3.852
				c-0.31,1.662-0.553,3.338-0.731,5.018l-26.749-3.086l-11.299,9.992l11.306,10.141l26.797-2.945
				c0.192,1.67,0.444,3.332,0.765,4.98L42.042,163.8l7.196,5.868l17.089-3.646c1.356,4.715,3.259,9.302,5.715,13.663l-14.904,9.065
				l-1.001,9.172l18.894-13.439c0.95,1.383,1.958,2.735,3.027,4.062l-21.085,16.728l-0.924,15.066l15.16-0.826l16.875-21.027
				c1.318,1.051,2.673,2.041,4.051,2.979L78.234,220.02l9.239-0.936l9.5-14.663c4.38,2.426,8.984,4.294,13.712,5.613l-4.129,16.946
				l5.776,7.199l3.862-22.867c1.662,0.306,3.331,0.551,5.005,0.728l-3.081,26.753l9.996,11.303l10.142-11.307l-2.941-26.807
				c1.663-0.19,3.32-0.443,4.969-0.758l3.294,22.955l5.864-7.193l-3.644-17.092c4.71-1.36,9.302-3.264,13.665-5.721l9.065,14.91
				l9.167,1.002l-13.438-18.902c1.387-0.947,2.743-1.957,4.063-3.027l16.725,21.099l15.068,0.911l-0.828-15.153l-21.03-16.876
				c1.057-1.318,2.046-2.672,2.978-4.057l18.561,13.908l-0.933-9.238l-14.664-9.497c2.421-4.386,4.291-8.989,5.607-13.716
				l16.954,4.131l7.198-5.779l-22.868-3.857c0.307-1.664,0.551-3.332,0.727-5.01L218.566,158.105z M99.379,158.834v14.795
				l-6.423,0.001c-8.362,0-15.592-12.179-15.592-25.017v-2.789c0-12.837,7.229-23.001,15.592-23.002h33.521v-3.387h-23.709v-10.775
				c0-5.131,3.311-11.242,23.635-11.242h4.645c20.325,0,20.834,6.11,20.834,11.242v24.156c0,7.19-4.353,13.715-11.542,13.715
				h-26.942C106.207,146.533,99.379,151.643,99.379,158.834z M177.283,150.627c0,12.839-5.537,23.002-13.898,23.002H128.17v3.389
				h23.71v10.775c-0.001,5.131-1.619,11.241-21.942,11.24h-4.646c-20.324,0-22.526-6.108-22.525-11.24v-24.156
				c0-7.191,6.045-13.717,13.234-13.717h26.943c7.188,0,12.322-5.11,12.323-12.3l-0.001-14.798l8.118,0.001
				c8.361-0.001,13.898,12.178,13.898,25.017V150.627z"/>
		</g>
	</g>
	<polygon fill="#FFD43C" points="23.303,252.922 26.872,242.396 20.225,233.489 31.338,233.631 37.756,224.558 41.055,235.17 
		51.668,238.47 42.593,244.887 42.735,256 33.828,249.353 	"/>
	<polygon fill="#FFD43C" points="127.387,0 132.307,9.967 143.305,11.564 135.346,19.323 137.225,30.277 127.387,25.104 
		117.55,30.276 119.429,19.322 111.47,11.564 122.469,9.967 	"/>
	<polygon fill="#FFD43C" points="232.697,252.922 222.172,249.354 213.266,256 213.406,244.887 204.333,238.47 214.945,235.171 
		218.245,224.558 224.662,233.632 235.775,233.49 229.129,242.396 	"/>
</g>
</svg>
